<svg width="558" height="500" viewBox="0 0 558 500" fill="none" xmlns="http://www.w3.org/2000/svg">
<g clip-path="url(#clip0_4_62)">
<path d="M56.8669 225.956L124.165 161.18M124.165 161.18L196.174 221.405M124.165 161.18L130.949 254.824C131.787 277.22 138.934 299.047 151.723 318.266C164.512 337.486 182.527 353.472 204.086 364.734C225.645 375.995 250.047 382.165 275.013 382.667C299.979 383.169 324.696 377.988 346.858 367.605M500.362 274.044L433.064 338.82M433.064 338.82L361.055 278.595M433.064 338.82L426.28 245.176C425.442 222.78 418.295 200.953 405.506 181.734C392.717 162.514 374.702 146.528 353.143 135.266C331.583 124.005 307.182 117.835 282.216 117.333C257.25 116.831 232.533 122.012 210.371 132.395" stroke="#1E1E1E" stroke-width="4" stroke-linecap="round" stroke-linejoin="round"/>
</g>
<path d="M278.615 206.182C278.615 200.584 275.867 195.216 270.976 191.258C266.085 187.3 259.451 185.076 252.534 185.076H213.413V264.224H259.054C264.242 264.224 269.217 265.891 272.886 268.86C276.554 271.829 278.615 275.855 278.615 280.053M278.615 206.182V280.053M278.615 206.182C278.615 200.584 281.363 195.216 286.254 191.258C291.145 187.3 297.779 185.076 304.696 185.076H343.817V264.224H298.175C292.988 264.224 288.012 265.891 284.344 268.86C280.676 271.829 278.615 275.855 278.615 280.053" stroke="#1E1E1E" stroke-width="4" stroke-linecap="round" stroke-linejoin="round"/>
<path d="M172.774 323.857H176.214V308.897H172.774V302.377H189.414C192.268 302.377 194.508 303.017 196.134 304.297C197.788 305.577 198.614 307.337 198.614 309.577C198.614 311.097 198.214 312.417 197.414 313.537C196.614 314.657 195.494 315.483 194.054 316.017V316.457C195.788 316.937 197.121 317.75 198.054 318.897C199.014 320.043 199.494 321.47 199.494 323.177C199.494 325.417 198.668 327.177 197.014 328.457C195.388 329.737 193.148 330.377 190.294 330.377H172.774V323.857ZM188.854 324.217C189.788 324.217 190.534 323.99 191.094 323.537C191.681 323.057 191.974 322.43 191.974 321.657C191.974 320.857 191.681 320.217 191.094 319.737C190.508 319.257 189.761 319.017 188.854 319.017H183.094V324.217H188.854ZM188.134 313.657C189.041 313.657 189.774 313.417 190.334 312.937C190.894 312.457 191.174 311.83 191.174 311.057C191.174 310.31 190.894 309.71 190.334 309.257C189.774 308.777 189.041 308.537 188.134 308.537H183.094V313.657H188.134ZM212.209 330.777C210.076 330.777 208.169 330.337 206.489 329.457C204.809 328.577 203.489 327.35 202.529 325.777C201.596 324.177 201.129 322.377 201.129 320.377C201.129 318.377 201.609 316.59 202.569 315.017C203.529 313.443 204.849 312.217 206.529 311.337C208.209 310.43 210.102 309.977 212.209 309.977C214.369 309.977 216.276 310.417 217.929 311.297C219.609 312.177 220.916 313.417 221.849 315.017C222.809 316.59 223.289 318.377 223.289 320.377C223.289 322.377 222.809 324.163 221.849 325.737C220.916 327.31 219.596 328.55 217.889 329.457C216.209 330.337 214.316 330.777 212.209 330.777ZM212.209 324.937C213.089 324.937 213.876 324.75 214.569 324.377C215.289 323.977 215.836 323.43 216.209 322.737C216.609 322.043 216.809 321.257 216.809 320.377C216.809 319.497 216.609 318.71 216.209 318.017C215.836 317.323 215.289 316.79 214.569 316.417C213.876 316.017 213.089 315.817 212.209 315.817C211.329 315.817 210.542 316.017 209.849 316.417C209.156 316.79 208.609 317.323 208.209 318.017C207.809 318.71 207.609 319.497 207.609 320.377C207.609 321.257 207.809 322.043 208.209 322.737C208.609 323.43 209.156 323.977 209.849 324.377C210.542 324.75 211.329 324.937 212.209 324.937ZM236.076 330.777C233.943 330.777 232.036 330.337 230.356 329.457C228.676 328.577 227.356 327.35 226.396 325.777C225.463 324.177 224.996 322.377 224.996 320.377C224.996 318.377 225.476 316.59 226.436 315.017C227.396 313.443 228.716 312.217 230.396 311.337C232.076 310.43 233.97 309.977 236.076 309.977C238.236 309.977 240.143 310.417 241.796 311.297C243.476 312.177 244.783 313.417 245.716 315.017C246.676 316.59 247.156 318.377 247.156 320.377C247.156 322.377 246.676 324.163 245.716 325.737C244.783 327.31 243.463 328.55 241.756 329.457C240.076 330.337 238.183 330.777 236.076 330.777ZM236.076 324.937C236.956 324.937 237.743 324.75 238.436 324.377C239.156 323.977 239.703 323.43 240.076 322.737C240.476 322.043 240.676 321.257 240.676 320.377C240.676 319.497 240.476 318.71 240.076 318.017C239.703 317.323 239.156 316.79 238.436 316.417C237.743 316.017 236.956 315.817 236.076 315.817C235.196 315.817 234.41 316.017 233.716 316.417C233.023 316.79 232.476 317.323 232.076 318.017C231.676 318.71 231.476 319.497 231.476 320.377C231.476 321.257 231.676 322.043 232.076 322.737C232.476 323.43 233.023 323.977 233.716 324.377C234.41 324.75 235.196 324.937 236.076 324.937ZM247.225 324.537H250.065V308.217H247.105V302.377H255.905V318.177H258.345L260.545 315.377H259.745V310.377H268.985V316.217H266.305L263.425 319.937L266.945 324.537H269.865V330.377H259.705V325.377H260.545L258.265 322.577H255.905V325.337H257.985V330.377H247.225V324.537ZM281.286 319.737H287.926V319.977C288.14 320.937 288.606 321.803 289.326 322.577C290.046 323.323 290.913 323.923 291.926 324.377C292.966 324.803 294.033 325.017 295.126 325.017C295.846 325.017 296.473 324.937 297.006 324.777C297.566 324.617 298.006 324.363 298.326 324.017C298.646 323.67 298.806 323.243 298.806 322.737C298.806 322.203 298.58 321.763 298.126 321.417C297.673 321.07 297.073 320.763 296.326 320.497C295.58 320.23 294.473 319.897 293.006 319.497C292.793 319.443 292.58 319.39 292.366 319.337C292.153 319.257 291.94 319.19 291.726 319.137C291.7 319.137 291.673 319.137 291.646 319.137C291.646 319.11 291.633 319.097 291.606 319.097C289.793 318.59 288.18 318.03 286.766 317.417C285.38 316.777 284.153 315.83 283.086 314.577C282.046 313.323 281.526 311.71 281.526 309.737C281.526 308.003 281.953 306.537 282.806 305.337C283.686 304.137 284.86 303.243 286.326 302.657C287.793 302.07 289.406 301.777 291.166 301.777C292.126 301.777 293.033 301.87 293.886 302.057C294.766 302.217 295.593 302.457 296.366 302.777C296.82 302.99 297.26 303.23 297.686 303.497C298.113 303.737 298.5 304.017 298.846 304.337V302.097H305.286V312.657H298.966V312.457C298.753 311.683 298.3 310.95 297.606 310.257C296.94 309.537 296.113 308.95 295.126 308.497C294.166 308.043 293.113 307.817 291.966 307.817C291.006 307.817 290.233 308.03 289.646 308.457C289.06 308.857 288.766 309.457 288.766 310.257C288.766 310.79 288.98 311.243 289.406 311.617C289.86 311.963 290.42 312.257 291.086 312.497C291.753 312.737 292.74 313.017 294.046 313.337C294.233 313.39 294.433 313.443 294.646 313.497C294.86 313.523 295.073 313.577 295.286 313.657L296.006 313.857C298.14 314.443 299.873 315.017 301.206 315.577C302.54 316.137 303.686 316.99 304.646 318.137C305.606 319.283 306.086 320.803 306.086 322.697C306.086 324.537 305.62 326.083 304.686 327.337C303.78 328.563 302.553 329.483 301.006 330.097C299.486 330.683 297.806 330.977 295.966 330.977C294.9 330.977 293.886 330.857 292.926 330.617C291.993 330.403 291.113 330.097 290.286 329.697C289.806 329.457 289.34 329.19 288.886 328.897C288.46 328.577 288.073 328.23 287.726 327.857V330.497H281.286V319.737ZM307.813 328.417H313.253V330.657C313.253 331.19 313.333 331.643 313.493 332.017C313.679 332.417 313.906 332.71 314.173 332.897C314.439 333.11 314.746 333.217 315.093 333.217C315.546 333.217 315.919 333.097 316.213 332.857C316.506 332.617 316.653 332.257 316.653 331.777V331.497C316.653 331.257 316.626 331.03 316.573 330.817C316.519 330.603 316.439 330.363 316.333 330.097C316.279 330.017 316.239 329.937 316.213 329.857C316.186 329.777 316.159 329.71 316.133 329.657L309.253 316.217H306.893V310.377H318.333V316.217H316.093L318.933 322.217C319.039 322.43 319.133 322.643 319.213 322.857C319.293 323.07 319.386 323.297 319.493 323.537C319.733 324.043 319.879 324.403 319.933 324.617C319.959 324.563 319.973 324.523 319.973 324.497C319.999 324.443 320.013 324.39 320.013 324.337L323.053 316.217H320.573V310.377H331.493V316.217H329.053L323.853 328.217C323.826 328.243 323.813 328.283 323.813 328.337C323.813 328.363 323.799 328.39 323.773 328.417C323.559 328.897 323.413 329.323 323.333 329.697C323.253 330.07 323.213 330.483 323.213 330.937V331.897C323.213 333.203 322.946 334.377 322.413 335.417C321.906 336.483 321.173 337.31 320.213 337.897C319.279 338.483 318.226 338.777 317.053 338.777C316.546 338.777 316.053 338.697 315.573 338.537C315.119 338.403 314.706 338.203 314.333 337.937C313.986 337.697 313.653 337.377 313.333 336.977V338.457H307.813V328.417ZM331.831 324.537H334.671V316.217H331.831V310.377H339.911V312.257C340.631 311.51 341.458 310.95 342.391 310.577C343.351 310.177 344.405 309.977 345.551 309.977C347.178 309.977 348.605 310.35 349.831 311.097C351.085 311.843 352.045 312.897 352.711 314.257C353.405 315.59 353.751 317.123 353.751 318.857V324.537H355.991V330.377H345.311V324.537H347.831V319.737C347.831 318.563 347.485 317.617 346.791 316.897C346.125 316.177 345.245 315.817 344.151 315.817C343.458 315.817 342.831 315.99 342.271 316.337C341.711 316.683 341.271 317.15 340.951 317.737C340.658 318.323 340.511 318.99 340.511 319.737V324.537H343.031V330.377H331.831V324.537ZM372.383 329.217C371.849 329.643 371.223 329.99 370.503 330.257C369.996 330.417 369.476 330.537 368.943 330.617C368.436 330.723 367.903 330.777 367.343 330.777C365.449 330.777 363.729 330.323 362.183 329.417C360.663 328.51 359.449 327.27 358.543 325.697C357.663 324.097 357.223 322.323 357.223 320.377C357.223 318.43 357.663 316.67 358.543 315.097C359.449 313.497 360.663 312.243 362.183 311.337C363.729 310.43 365.449 309.977 367.343 309.977C368.463 309.977 369.463 310.137 370.343 310.457C371.063 310.723 371.716 311.057 372.303 311.457V309.737H377.703V318.737H371.903V318.377C371.769 317.87 371.503 317.417 371.103 317.017C370.703 316.617 370.223 316.31 369.663 316.097C369.129 315.857 368.556 315.737 367.943 315.737C367.116 315.737 366.356 315.937 365.663 316.337C364.996 316.737 364.463 317.297 364.063 318.017C363.663 318.71 363.463 319.497 363.463 320.377C363.463 321.257 363.663 322.057 364.063 322.777C364.463 323.47 364.996 324.017 365.663 324.417C366.356 324.817 367.116 325.017 367.943 325.017C368.583 325.017 369.183 324.897 369.743 324.657C370.303 324.417 370.783 324.097 371.183 323.697C371.583 323.27 371.849 322.79 371.983 322.257V321.897H377.783V330.777H372.383V329.217Z" fill="black"/>
<defs>
<clipPath id="clip0_4_62">
<rect width="375.495" height="373.629" fill="white" transform="matrix(-0.767083 -0.641547 0.720481 -0.693474 288.036 500)"/>
</clipPath>
</defs>
</svg>
