<svg width="558" height="500" viewBox="0 0 558 500" fill="none" xmlns="http://www.w3.org/2000/svg">
<g clip-path="url(#clip0_4_62)">
<path d="M56.8669 225.956L124.165 161.18M124.165 161.18L196.174 221.405M124.165 161.18L130.949 254.824C131.787 277.22 138.934 299.047 151.723 318.266C164.512 337.486 182.527 353.472 204.086 364.734C225.645 375.995 250.047 382.165 275.013 382.667C299.979 383.169 324.696 377.988 346.858 367.605M500.362 274.044L433.064 338.82M433.064 338.82L361.055 278.595M433.064 338.82L426.28 245.176C425.442 222.78 418.295 200.953 405.506 181.734C392.717 162.514 374.702 146.528 353.143 135.266C331.583 124.005 307.182 117.835 282.216 117.333C257.25 116.831 232.533 122.012 210.371 132.395" stroke="#1E1E1E" stroke-width="4" stroke-linecap="round" stroke-linejoin="round"/>
</g>
<path d="M279.243 223.936C279.243 218.338 276.495 212.969 271.604 209.011C266.713 205.053 260.079 202.83 253.162 202.83H214.04V281.977H259.682C264.87 281.977 269.845 283.645 273.513 286.613C277.182 289.582 279.243 293.608 279.243 297.807M279.243 223.936V297.807M279.243 223.936C279.243 218.338 281.99 212.969 286.881 209.011C291.773 205.053 298.406 202.83 305.323 202.83H344.445V281.977H298.803C293.615 281.977 288.64 283.645 284.972 286.613C281.303 289.582 279.243 293.608 279.243 297.807" stroke="#1E1E1E" stroke-width="4" stroke-linecap="round" stroke-linejoin="round"/>
<defs>
<clipPath id="clip0_4_62">
<rect width="375.495" height="373.629" fill="white" transform="matrix(-0.767083 -0.641547 0.720481 -0.693474 288.036 500)"/>
</clipPath>
</defs>
</svg>
